<svg width="539" height="438" viewBox="0 0 539 438" fill="none" xmlns="http://www.w3.org/2000/svg">
<rect width="138" height="138" rx="69" fill="#7E3A3A"/>
<path d="M91.295 79.1465C91.295 91.7045 86.836 102.261 69 102.261C51.164 102.261 46.705 91.7045 46.705 79.1465V73.6865H61.265V79.1465C61.265 85.3345 62.721 88.8835 68.09 88.8835C73.459 88.8835 74.915 85.3345 74.915 79.1465V35.7395H91.295V79.1465Z" fill="#FFFBF9"/>
<rect x="149" width="138" height="138" rx="69" fill="#96752C"/>
<path d="M218 102.989C197.343 102.989 185.786 88.6105 185.786 68.9545C185.786 49.3895 197.343 35.0115 218 35.0115C238.475 35.0115 250.214 49.3895 250.214 68.9545C250.214 88.6105 238.475 102.989 218 102.989ZM218 89.6115C229.83 89.6115 233.834 80.3295 233.834 68.9545C233.834 57.6705 229.83 48.3885 218 48.3885C206.079 48.3885 202.166 57.6705 202.166 68.9545C202.166 80.3295 206.079 89.6115 218 89.6115Z" fill="#FFFBF9"/>
<rect x="298" width="138" height="138" rx="69" fill="#3D4686"/>
<path d="M391.843 52.8475C391.843 60.8555 387.111 64.8595 381.742 66.6795V66.8615C388.567 68.0445 394.391 72.5945 394.391 82.3315C394.391 96.1635 385.564 101.533 372.096 101.533H339.609V36.4675H371.186C384.745 36.4675 391.843 41.7455 391.843 52.8475ZM355.989 62.7665H367.273C371.823 62.7665 375.463 61.6745 375.463 56.3055C375.463 50.9365 371.823 49.8445 367.273 49.8445H355.989V62.7665ZM355.989 72.7765V88.1555H367.728C374.553 88.1555 378.011 86.5175 378.011 80.4205C378.011 74.3235 374.553 72.7765 367.728 72.7765H355.989Z" fill="#FFFBF9"/>
<path d="M34.307 220L33.397 213.266V191.699C33.397 189.03 32.5477 187.058 30.849 185.784C29.211 184.449 26.9663 183.782 24.115 183.782C21.749 183.782 19.3223 184.267 16.835 185.238C14.4083 186.148 12.2547 187.452 10.374 189.151L4.641 181.416C7.79567 178.868 11.011 177.048 14.287 175.956C17.6237 174.803 21.203 174.227 25.025 174.227C31.213 174.227 36.036 175.774 39.494 178.868C42.952 181.962 44.681 186.239 44.681 191.699V220H34.307ZM20.748 220.91C17.472 220.91 14.5297 220.303 11.921 219.09C9.373 217.877 7.34067 216.148 5.824 213.903C4.368 211.658 3.64 209.08 3.64 206.168C3.64 203.559 4.15567 201.345 5.187 199.525C6.279 197.644 7.70467 196.219 9.464 195.248C10.9807 194.338 12.649 193.701 14.469 193.337C16.3497 192.973 18.3517 192.791 20.475 192.791H34.398V201.163H22.113C21.1423 201.163 20.1717 201.254 19.201 201.436C18.291 201.557 17.5023 201.891 16.835 202.437C16.2283 202.862 15.7733 203.408 15.47 204.075C15.1667 204.682 15.015 205.379 15.015 206.168C15.015 207.867 15.6823 209.232 17.017 210.263C18.3517 211.294 20.1413 211.81 22.386 211.81C24.388 211.81 26.208 211.385 27.846 210.536C29.5447 209.626 30.8793 208.413 31.85 206.896C32.8813 205.319 33.397 203.529 33.397 201.527L36.4 207.533C35.6113 210.688 34.398 213.266 32.76 215.268C31.1827 217.209 29.3627 218.635 27.3 219.545C25.2373 220.455 23.0533 220.91 20.748 220.91ZM74.9748 220.91C71.3348 220.91 68.1498 220.273 65.4198 218.999C62.7504 217.664 60.4754 215.905 58.5948 213.721C56.7748 211.537 55.4098 209.05 54.4998 206.259C53.5898 203.468 53.1348 200.556 53.1348 197.523C53.1348 194.55 53.5898 191.669 54.4998 188.878C55.4098 186.087 56.7748 183.6 58.5948 181.416C60.4754 179.232 62.7504 177.503 65.4198 176.229C68.1498 174.894 71.3348 174.227 74.9748 174.227C79.5248 174.227 83.4681 175.319 86.8048 177.503C90.1414 179.687 92.6288 182.993 94.2668 187.422L84.4388 191.335C83.7108 189.212 82.5884 187.483 81.0718 186.148C79.6158 184.753 77.5834 184.055 74.9748 184.055C72.5481 184.055 70.5461 184.722 68.9688 186.057C67.3914 187.331 66.2388 188.999 65.5108 191.062C64.7828 193.125 64.4188 195.278 64.4188 197.523C64.4188 199.768 64.7828 201.952 65.5108 204.075C66.2388 206.138 67.3914 207.836 68.9688 209.171C70.5461 210.445 72.5481 211.082 74.9748 211.082C77.5834 211.082 79.6158 210.415 81.0718 209.08C82.5884 207.685 83.7108 205.895 84.4388 203.711L94.2668 207.624C92.6288 212.113 90.1414 215.45 86.8048 217.634C83.4681 219.818 79.5248 220.91 74.9748 220.91ZM122.519 220.91C118.879 220.91 115.694 220.273 112.964 218.999C110.294 217.664 108.019 215.905 106.139 213.721C104.319 211.537 102.954 209.05 102.044 206.259C101.134 203.468 100.679 200.556 100.679 197.523C100.679 194.55 101.134 191.669 102.044 188.878C102.954 186.087 104.319 183.6 106.139 181.416C108.019 179.232 110.294 177.503 112.964 176.229C115.694 174.894 118.879 174.227 122.519 174.227C127.069 174.227 131.012 175.319 134.349 177.503C137.685 179.687 140.173 182.993 141.811 187.422L131.983 191.335C131.255 189.212 130.132 187.483 128.616 186.148C127.16 184.753 125.127 184.055 122.519 184.055C120.092 184.055 118.09 184.722 116.513 186.057C114.935 187.331 113.783 188.999 113.055 191.062C112.327 193.125 111.963 195.278 111.963 197.523C111.963 199.768 112.327 201.952 113.055 204.075C113.783 206.138 114.935 207.836 116.513 209.171C118.09 210.445 120.092 211.082 122.519 211.082C125.127 211.082 127.16 210.415 128.616 209.08C130.132 207.685 131.255 205.895 131.983 203.711L141.811 207.624C140.173 212.113 137.685 215.45 134.349 217.634C131.012 219.818 127.069 220.91 122.519 220.91ZM170.336 220.91C166.453 220.91 163.116 220.273 160.326 218.999C157.535 217.725 155.23 216.026 153.41 213.903C151.65 211.719 150.346 209.262 149.497 206.532C148.647 203.741 148.223 200.829 148.223 197.796C148.223 194.884 148.647 192.033 149.497 189.242C150.346 186.451 151.62 183.934 153.319 181.689C155.017 179.444 157.201 177.655 159.871 176.32C162.601 174.925 165.846 174.227 169.608 174.227C173.126 174.227 176.19 174.834 178.799 176.047C181.407 177.2 183.561 178.838 185.26 180.961C186.958 183.024 188.232 185.45 189.082 188.241C189.992 191.032 190.447 194.004 190.447 197.159C190.447 197.584 190.416 198.19 190.356 198.979C190.356 199.707 190.295 200.496 190.174 201.345H159.507C159.81 204.56 160.993 206.987 163.056 208.625C165.179 210.263 167.818 211.082 170.973 211.082C173.278 211.082 175.523 210.688 177.707 209.899C179.891 209.05 181.832 207.867 183.531 206.35L189.173 213.994C187.049 215.632 185.047 216.967 183.167 217.998C181.286 219.029 179.314 219.757 177.252 220.182C175.25 220.667 172.944 220.91 170.336 220.91ZM179.254 195.703C179.375 195.218 179.466 194.732 179.527 194.247C179.648 193.762 179.709 193.307 179.709 192.882C179.709 191.608 179.466 190.425 178.981 189.333C178.495 188.18 177.828 187.179 176.979 186.33C176.129 185.481 175.098 184.844 173.885 184.419C172.732 183.934 171.397 183.691 169.881 183.691C167.636 183.691 165.755 184.146 164.239 185.056C162.722 185.966 161.569 187.149 160.781 188.605C160.053 190 159.598 191.456 159.416 192.973H183.076L179.254 195.703ZM215.109 220.91C211.772 220.91 208.86 220.425 206.373 219.454C203.886 218.483 201.762 217.27 200.003 215.814C198.304 214.358 196.939 212.963 195.908 211.628L203.643 204.894C204.674 206.593 206.13 208.17 208.011 209.626C209.952 211.021 212.349 211.719 215.2 211.719C217.445 211.719 219.174 211.294 220.387 210.445C221.661 209.535 222.298 208.413 222.298 207.078C222.298 205.986 221.904 205.106 221.115 204.439C220.326 203.711 219.265 203.135 217.93 202.71C216.595 202.225 215.109 201.77 213.471 201.345C211.772 200.86 210.013 200.314 208.193 199.707C206.373 199.1 204.705 198.312 203.188 197.341C201.671 196.31 200.428 195.005 199.457 193.428C198.547 191.851 198.092 189.879 198.092 187.513C198.092 183.57 199.639 180.385 202.733 177.958C205.827 175.471 209.922 174.227 215.018 174.227C218.597 174.227 221.843 174.955 224.755 176.411C227.667 177.806 229.972 179.839 231.671 182.508L224.664 188.059C223.572 186.3 222.116 184.995 220.296 184.146C218.537 183.236 216.656 182.781 214.654 182.781C212.895 182.781 211.439 183.115 210.286 183.782C209.194 184.449 208.648 185.359 208.648 186.512C208.648 187.301 208.891 187.968 209.376 188.514C209.922 189.06 210.771 189.545 211.924 189.97C213.137 190.334 214.715 190.759 216.656 191.244C218.476 191.669 220.357 192.184 222.298 192.791C224.239 193.398 226.059 194.217 227.758 195.248C229.457 196.279 230.822 197.644 231.853 199.343C232.884 201.042 233.4 203.195 233.4 205.804C233.4 208.777 232.642 211.416 231.125 213.721C229.608 215.966 227.485 217.725 224.755 218.999C222.025 220.273 218.81 220.91 215.109 220.91ZM258.032 220.91C254.695 220.91 251.783 220.425 249.296 219.454C246.809 218.483 244.685 217.27 242.926 215.814C241.227 214.358 239.862 212.963 238.831 211.628L246.566 204.894C247.597 206.593 249.053 208.17 250.934 209.626C252.875 211.021 255.272 211.719 258.123 211.719C260.368 211.719 262.097 211.294 263.31 210.445C264.584 209.535 265.221 208.413 265.221 207.078C265.221 205.986 264.827 205.106 264.038 204.439C263.249 203.711 262.188 203.135 260.853 202.71C259.518 202.225 258.032 201.77 256.394 201.345C254.695 200.86 252.936 200.314 251.116 199.707C249.296 199.1 247.628 198.312 246.111 197.341C244.594 196.31 243.351 195.005 242.38 193.428C241.47 191.851 241.015 189.879 241.015 187.513C241.015 183.57 242.562 180.385 245.656 177.958C248.75 175.471 252.845 174.227 257.941 174.227C261.52 174.227 264.766 174.955 267.678 176.411C270.59 177.806 272.895 179.839 274.594 182.508L267.587 188.059C266.495 186.3 265.039 184.995 263.219 184.146C261.46 183.236 259.579 182.781 257.577 182.781C255.818 182.781 254.362 183.115 253.209 183.782C252.117 184.449 251.571 185.359 251.571 186.512C251.571 187.301 251.814 187.968 252.299 188.514C252.845 189.06 253.694 189.545 254.847 189.97C256.06 190.334 257.638 190.759 259.579 191.244C261.399 191.669 263.28 192.184 265.221 192.791C267.162 193.398 268.982 194.217 270.681 195.248C272.38 196.279 273.745 197.644 274.776 199.343C275.807 201.042 276.323 203.195 276.323 205.804C276.323 208.777 275.565 211.416 274.048 213.721C272.531 215.966 270.408 217.725 267.678 218.999C264.948 220.273 261.733 220.91 258.032 220.91ZM285.303 220V175.137H296.587V220H285.303ZM284.939 168.221V156.573H297.042V168.221H284.939ZM331.814 220.91C329.57 220.91 327.386 220.485 325.262 219.636C323.2 218.726 321.38 217.24 319.802 215.177C318.225 213.054 317.042 210.233 316.253 206.714L318.983 207.988V220H307.699V156.573H318.983V187.24L316.617 187.968C317.163 184.874 318.164 182.326 319.62 180.324C321.137 178.261 322.957 176.745 325.08 175.774C327.204 174.743 329.448 174.227 331.814 174.227C335.333 174.227 338.548 175.167 341.46 177.048C344.372 178.868 346.678 181.507 348.376 184.965C350.075 188.423 350.924 192.609 350.924 197.523C350.924 201.952 350.166 205.956 348.649 209.535C347.133 213.054 344.918 215.844 342.006 217.907C339.155 219.909 335.758 220.91 331.814 220.91ZM328.72 210.536C330.965 210.536 332.876 210.02 334.453 208.989C336.091 207.897 337.365 206.38 338.275 204.439C339.185 202.498 339.64 200.192 339.64 197.523C339.64 194.854 339.185 192.579 338.275 190.698C337.365 188.757 336.091 187.27 334.453 186.239C332.876 185.147 330.965 184.601 328.72 184.601C326.536 184.601 324.625 185.147 322.987 186.239C321.41 187.27 320.166 188.757 319.256 190.698C318.407 192.639 317.982 194.914 317.982 197.523C317.982 200.132 318.407 202.407 319.256 204.348C320.166 206.289 321.41 207.806 322.987 208.898C324.625 209.99 326.536 210.536 328.72 210.536ZM359.862 220V175.137H371.146V220H359.862ZM359.498 168.221V156.573H371.601V168.221H359.498ZM392.724 220.91C389.63 220.91 387.082 219.97 385.08 218.089C383.078 216.208 382.077 213.236 382.077 209.171V156.573H393.27V206.987C393.27 208.261 393.573 209.171 394.18 209.717C394.787 210.202 395.575 210.445 396.546 210.445C397.031 210.445 397.547 210.415 398.093 210.354C398.639 210.233 399.215 210.081 399.822 209.899V219.545C398.548 220.03 397.274 220.364 396 220.546C394.787 220.789 393.695 220.91 392.724 220.91ZM407.495 220V175.137H418.779V220H407.495ZM407.131 168.221V156.573H419.234V168.221H407.131ZM447 220.91C444.573 220.91 442.328 220.455 440.266 219.545C438.203 218.635 436.535 217.149 435.261 215.086C434.047 213.023 433.441 210.263 433.441 206.805V164.672L444.907 158.575V203.711C444.907 206.32 445.24 208.291 445.908 209.626C446.636 210.961 448.031 211.628 450.094 211.628C450.7 211.628 451.368 211.567 452.096 211.446C452.884 211.325 453.734 211.143 454.644 210.9V219.545C453.37 220.03 452.096 220.364 450.822 220.546C449.548 220.789 448.274 220.91 447 220.91ZM425.251 183.964V175.137H454.644V183.964H425.251ZM466.946 238.564L476.046 216.542L459.12 175.137H471.496L482.052 205.258L492.79 175.137H504.984L479.231 238.564H466.946ZM29.666 320.91C27.4213 320.91 25.2373 320.485 23.114 319.636C21.0513 318.726 19.2313 317.24 17.654 315.177C16.0767 313.054 14.8937 310.233 14.105 306.714L16.835 307.988V320H5.551V256.573H16.835V287.24L14.469 287.968C15.015 284.874 16.016 282.326 17.472 280.324C18.9887 278.261 20.8087 276.745 22.932 275.774C25.0553 274.743 27.3 274.227 29.666 274.227C33.1847 274.227 36.4 275.167 39.312 277.048C42.224 278.868 44.5293 281.507 46.228 284.965C47.9267 288.423 48.776 292.609 48.776 297.523C48.776 301.952 48.0177 305.956 46.501 309.535C44.9843 313.054 42.77 315.844 39.858 317.907C37.0067 319.909 33.6093 320.91 29.666 320.91ZM26.572 310.536C28.8167 310.536 30.7277 310.02 32.305 308.989C33.943 307.897 35.217 306.38 36.127 304.439C37.037 302.498 37.492 300.192 37.492 297.523C37.492 294.854 37.037 292.579 36.127 290.698C35.217 288.757 33.943 287.27 32.305 286.239C30.7277 285.147 28.8167 284.601 26.572 284.601C24.388 284.601 22.477 285.147 20.839 286.239C19.2617 287.27 18.018 288.757 17.108 290.698C16.2587 292.639 15.834 294.914 15.834 297.523C15.834 300.132 16.2587 302.407 17.108 304.348C18.018 306.289 19.2617 307.806 20.839 308.898C22.477 309.99 24.388 310.536 26.572 310.536ZM60.023 338.564L69.123 316.542L52.197 275.137H64.573L75.129 305.258L85.867 275.137H98.061L72.308 338.564H60.023ZM128.721 338.564V275.137H140.005V287.149L137.275 288.059C138.064 284.48 139.247 281.689 140.824 279.687C142.462 277.685 144.312 276.29 146.375 275.501C148.438 274.652 150.591 274.227 152.836 274.227C156.779 274.227 160.177 275.258 163.028 277.321C165.94 279.323 168.154 282.083 169.671 285.602C171.188 289.121 171.946 293.125 171.946 297.614C171.946 302.467 171.097 306.653 169.398 310.172C167.699 313.63 165.394 316.299 162.482 318.18C159.57 320 156.355 320.91 152.836 320.91C150.47 320.91 148.225 320.425 146.102 319.454C143.979 318.483 142.159 317.027 140.642 315.086C139.186 313.084 138.185 310.566 137.639 307.533L140.005 307.897V338.564H128.721ZM149.742 310.536C151.987 310.536 153.898 310.02 155.475 308.989C157.113 307.897 158.387 306.38 159.297 304.439C160.207 302.498 160.662 300.223 160.662 297.614C160.662 294.945 160.207 292.639 159.297 290.698C158.387 288.757 157.113 287.27 155.475 286.239C153.898 285.147 151.987 284.601 149.742 284.601C147.558 284.601 145.647 285.147 144.009 286.239C142.432 287.331 141.188 288.848 140.278 290.789C139.429 292.67 139.004 294.945 139.004 297.614C139.004 300.223 139.429 302.498 140.278 304.439C141.188 306.38 142.432 307.897 144.009 308.989C145.647 310.02 147.558 310.536 149.742 310.536ZM196.809 320.91C193.169 320.91 190.105 320.182 187.618 318.726C185.191 317.27 183.371 315.207 182.158 312.538C181.005 309.869 180.429 306.744 180.429 303.165V275.137H191.713V300.344C191.713 302.407 191.955 304.257 192.441 305.895C192.926 307.472 193.775 308.746 194.989 309.717C196.263 310.627 197.992 311.082 200.176 311.082C202.845 311.082 204.847 310.324 206.182 308.807C207.577 307.29 208.517 305.197 209.003 302.528C209.549 299.798 209.822 296.613 209.822 292.973V275.137H221.106V320H209.822V310.263L211.369 311.173C210.034 314.631 208.062 317.118 205.454 318.635C202.845 320.152 199.963 320.91 196.809 320.91ZM256.455 320.91C254.21 320.91 252.026 320.485 249.903 319.636C247.84 318.726 246.02 317.24 244.443 315.177C242.866 313.054 241.683 310.233 240.894 306.714L243.624 307.988V320H232.34V256.573H243.624V287.24L241.258 287.968C241.804 284.874 242.805 282.326 244.261 280.324C245.778 278.261 247.598 276.745 249.721 275.774C251.844 274.743 254.089 274.227 256.455 274.227C259.974 274.227 263.189 275.167 266.101 277.048C269.013 278.868 271.318 281.507 273.017 284.965C274.716 288.423 275.565 292.609 275.565 297.523C275.565 301.952 274.807 305.956 273.29 309.535C271.773 313.054 269.559 315.844 266.647 317.907C263.796 319.909 260.398 320.91 256.455 320.91ZM253.361 310.536C255.606 310.536 257.517 310.02 259.094 308.989C260.732 307.897 262.006 306.38 262.916 304.439C263.826 302.498 264.281 300.192 264.281 297.523C264.281 294.854 263.826 292.579 262.916 290.698C262.006 288.757 260.732 287.27 259.094 286.239C257.517 285.147 255.606 284.601 253.361 284.601C251.177 284.601 249.266 285.147 247.628 286.239C246.051 287.27 244.807 288.757 243.897 290.698C243.048 292.639 242.623 294.914 242.623 297.523C242.623 300.132 243.048 302.407 243.897 304.348C244.807 306.289 246.051 307.806 247.628 308.898C249.266 309.99 251.177 310.536 253.361 310.536ZM295.059 320.91C291.965 320.91 289.417 319.97 287.415 318.089C285.413 316.208 284.412 313.236 284.412 309.171V256.573H295.605V306.987C295.605 308.261 295.908 309.171 296.515 309.717C297.122 310.202 297.91 310.445 298.881 310.445C299.366 310.445 299.882 310.415 300.428 310.354C300.974 310.233 301.55 310.081 302.157 309.899V319.545C300.883 320.03 299.609 320.364 298.335 320.546C297.122 320.789 296.03 320.91 295.059 320.91ZM309.83 320V275.137H321.114V320H309.83ZM309.466 268.221V256.573H321.569V268.221H309.466ZM351.974 320.91C348.334 320.91 345.149 320.273 342.419 318.999C339.749 317.664 337.474 315.905 335.594 313.721C333.774 311.537 332.409 309.05 331.499 306.259C330.589 303.468 330.134 300.556 330.134 297.523C330.134 294.55 330.589 291.669 331.499 288.878C332.409 286.087 333.774 283.6 335.594 281.416C337.474 279.232 339.749 277.503 342.419 276.229C345.149 274.894 348.334 274.227 351.974 274.227C356.524 274.227 360.467 275.319 363.804 277.503C367.14 279.687 369.628 282.993 371.266 287.422L361.438 291.335C360.71 289.212 359.587 287.483 358.071 286.148C356.615 284.753 354.582 284.055 351.974 284.055C349.547 284.055 347.545 284.722 345.968 286.057C344.39 287.331 343.238 288.999 342.51 291.062C341.782 293.125 341.418 295.278 341.418 297.523C341.418 299.768 341.782 301.952 342.51 304.075C343.238 306.138 344.39 307.836 345.968 309.171C347.545 310.445 349.547 311.082 351.974 311.082C354.582 311.082 356.615 310.415 358.071 309.08C359.587 307.685 360.71 305.895 361.438 303.711L371.266 307.624C369.628 312.113 367.14 315.45 363.804 317.634C360.467 319.818 356.524 320.91 351.974 320.91ZM22.659 420.91C20.2323 420.91 17.9877 420.455 15.925 419.545C13.8623 418.635 12.194 417.149 10.92 415.086C9.70667 413.023 9.1 410.263 9.1 406.805V364.672L20.566 358.575V403.711C20.566 406.32 20.8997 408.291 21.567 409.626C22.295 410.961 23.6903 411.628 25.753 411.628C26.3597 411.628 27.027 411.567 27.755 411.446C28.5437 411.325 29.393 411.143 30.303 410.9V419.545C29.029 420.03 27.755 420.364 26.481 420.546C25.207 420.789 23.933 420.91 22.659 420.91ZM0.91 383.964V375.137H30.303V383.964H0.91ZM38.9651 420V375.137H50.3401V387.331L48.6111 387.513C48.7931 384.904 49.5817 382.599 50.9771 380.597C52.3724 378.595 54.0711 377.048 56.0731 375.956C58.1357 374.803 60.2287 374.227 62.3521 374.227C63.8687 374.227 65.2944 374.439 66.6291 374.864C68.0244 375.228 69.4501 375.865 70.9061 376.775L65.4461 386.967C64.7787 386.603 63.9294 386.269 62.8981 385.966C61.8667 385.663 60.8354 385.511 59.8041 385.511C58.5907 385.511 57.4077 385.723 56.2551 386.148C55.1631 386.573 54.1621 387.24 53.2521 388.15C52.4027 389.06 51.7051 390.273 51.1591 391.79C50.9164 392.639 50.7041 393.731 50.5221 395.066C50.4007 396.34 50.3401 398.221 50.3401 400.708V420H38.9651ZM105.578 420L104.668 413.266V391.699C104.668 389.03 103.819 387.058 102.12 385.784C100.482 384.449 98.2378 383.782 95.3865 383.782C93.0205 383.782 90.5938 384.267 88.1065 385.238C85.6798 386.148 83.5262 387.452 81.6455 389.151L75.9125 381.416C79.0672 378.868 82.2825 377.048 85.5585 375.956C88.8952 374.803 92.4745 374.227 96.2965 374.227C102.484 374.227 107.307 375.774 110.765 378.868C114.223 381.962 115.952 386.239 115.952 391.699V420H105.578ZM92.0195 420.91C88.7435 420.91 85.8012 420.303 83.1925 419.09C80.6445 417.877 78.6122 416.148 77.0955 413.903C75.6395 411.658 74.9115 409.08 74.9115 406.168C74.9115 403.559 75.4272 401.345 76.4585 399.525C77.5505 397.644 78.9762 396.219 80.7355 395.248C82.2522 394.338 83.9205 393.701 85.7405 393.337C87.6212 392.973 89.6232 392.791 91.7465 392.791H105.669V401.163H93.3845C92.4138 401.163 91.4432 401.254 90.4725 401.436C89.5625 401.557 88.7738 401.891 88.1065 402.437C87.4998 402.862 87.0448 403.408 86.7415 404.075C86.4382 404.682 86.2865 405.379 86.2865 406.168C86.2865 407.867 86.9538 409.232 88.2885 410.263C89.6232 411.294 91.4128 411.81 93.6575 411.81C95.6595 411.81 97.4795 411.385 99.1175 410.536C100.816 409.626 102.151 408.413 103.121 406.896C104.153 405.319 104.668 403.529 104.668 401.527L107.671 407.533C106.883 410.688 105.669 413.266 104.031 415.268C102.454 417.209 100.634 418.635 98.5715 419.545C96.5088 420.455 94.3248 420.91 92.0195 420.91ZM126.499 420V375.137H137.874V385.329L136.054 385.511C136.843 382.781 137.996 380.597 139.512 378.959C141.029 377.321 142.788 376.138 144.79 375.41C146.792 374.621 148.855 374.227 150.978 374.227C156.074 374.227 160.048 375.683 162.899 378.595C165.811 381.446 167.267 385.481 167.267 390.698V420H155.892V394.884C155.892 391.123 155.225 388.393 153.89 386.694C152.556 384.935 150.463 384.055 147.611 384.055C145.427 384.055 143.607 384.571 142.151 385.602C140.756 386.573 139.694 388.12 138.966 390.243C138.238 392.366 137.874 395.127 137.874 398.524V420H126.499ZM193.425 420.91C190.089 420.91 187.177 420.425 184.689 419.454C182.202 418.483 180.079 417.27 178.319 415.814C176.621 414.358 175.256 412.963 174.224 411.628L181.959 404.894C182.991 406.593 184.447 408.17 186.327 409.626C188.269 411.021 190.665 411.719 193.516 411.719C195.761 411.719 197.49 411.294 198.703 410.445C199.977 409.535 200.614 408.413 200.614 407.078C200.614 405.986 200.22 405.106 199.431 404.439C198.643 403.711 197.581 403.135 196.246 402.71C194.912 402.225 193.425 401.77 191.787 401.345C190.089 400.86 188.329 400.314 186.509 399.707C184.689 399.1 183.021 398.312 181.504 397.341C179.988 396.31 178.744 395.005 177.773 393.428C176.863 391.851 176.408 389.879 176.408 387.513C176.408 383.57 177.955 380.385 181.049 377.958C184.143 375.471 188.238 374.227 193.334 374.227C196.914 374.227 200.159 374.955 203.071 376.411C205.983 377.806 208.289 379.839 209.987 382.508L202.98 388.059C201.888 386.3 200.432 384.995 198.612 384.146C196.853 383.236 194.972 382.781 192.97 382.781C191.211 382.781 189.755 383.115 188.602 383.782C187.51 384.449 186.964 385.359 186.964 386.512C186.964 387.301 187.207 387.968 187.692 388.514C188.238 389.06 189.088 389.545 190.24 389.97C191.454 390.334 193.031 390.759 194.972 391.244C196.792 391.669 198.673 392.184 200.614 392.791C202.556 393.398 204.376 394.217 206.074 395.248C207.773 396.279 209.138 397.644 210.169 399.343C211.201 401.042 211.716 403.195 211.716 405.804C211.716 408.777 210.958 411.416 209.441 413.721C207.925 415.966 205.801 417.725 203.071 418.999C200.341 420.273 197.126 420.91 193.425 420.91ZM220.696 420V375.137H231.98V420H220.696ZM220.332 368.221V356.573H232.435V368.221H220.332ZM260.201 420.91C257.774 420.91 255.53 420.455 253.467 419.545C251.404 418.635 249.736 417.149 248.462 415.086C247.249 413.023 246.642 410.263 246.642 406.805V364.672L258.108 358.575V403.711C258.108 406.32 258.442 408.291 259.109 409.626C259.837 410.961 261.232 411.628 263.295 411.628C263.902 411.628 264.569 411.567 265.297 411.446C266.086 411.325 266.935 411.143 267.845 410.9V419.545C266.571 420.03 265.297 420.364 264.023 420.546C262.749 420.789 261.475 420.91 260.201 420.91ZM238.452 383.964V375.137H267.845V383.964H238.452Z" fill="#F9E8DE"/>
</svg>
